<?xml version="1.0" encoding="utf-8"?>
<!-- Generator: Adobe Illustrator 15.1.0, SVG Export Plug-In . SVG Version: 6.00 Build 0)  -->
<!DOCTYPE svg PUBLIC "-//W3C//DTD SVG 1.1//EN" "http://www.w3.org/Graphics/SVG/1.1/DTD/svg11.dtd">
<svg version="1.1" id="Layer_1" xmlns="http://www.w3.org/2000/svg" xmlns:xlink="http://www.w3.org/1999/xlink" x="0px" y="0px"
	 width="163.686px" height="58.707px" viewBox="0 0 163.686 58.707" enable-background="new 0 0 163.686 58.707"
	 xml:space="preserve">
<g>
	<path d="M99.409,4.622c0.529-0.419,1.171-0.698,1.843-0.78c0.588-0.065,1.24-0.016,1.725,0.361
		c0.361,0.256,0.526,0.725,0.495,1.157c-0.07,0.451-0.192,0.891-0.314,1.33c-0.435,1.452-0.937,2.883-1.454,4.307
		c-0.422,1.164-0.883,2.313-1.266,3.49c-0.865,2.626-1.607,5.292-2.329,7.961c-0.429,1.58-0.726,3.193-0.938,4.815
		c-0.017,0.188-0.031,0.376-0.062,0.563c-0.055,0.458-0.07,0.919-0.129,1.375c-0.007,0.551-0.078,1.1-0.066,1.652
		c-0.061,0.645-0.021,1.293-0.031,1.939c0,1.514-0.023,3.028,0.088,4.535c0.006,0.142,0.003,0.284,0.01,0.426
		c0.043,0.269,0.042,0.543,0.064,0.814c0.049,0.334,0.057,0.674,0.109,1.009c0.102,0.942,0.246,1.882,0.456,2.808
		c0.118,0.493,0.247,0.991,0.491,1.44c0.27,0.55,0.567,1.115,1.064,1.495c0.446,0.384,0.958,0.809,1.024,1.436
		c0.038,0.406-0.05,0.832-0.3,1.161c-0.164,0.197-0.426,0.256-0.67,0.272c-0.887,0.078-1.776,0.081-2.666,0.064
		c-0.635-0.094-1.207-0.477-1.573-0.998c-0.325-0.419-0.519-0.919-0.7-1.412c-0.383-1.179-0.551-2.413-0.688-3.641
		c-0.022-0.129-0.027-0.259-0.047-0.385c-0.007-0.082-0.009-0.161-0.013-0.24c-0.031-0.128-0.023-0.26-0.049-0.386
		c-0.066-0.792-0.124-1.586-0.19-2.374c-0.017-0.396-0.022-0.797-0.063-1.189c-0.017-0.298,0.016-0.599-0.03-0.895
		c-0.023-0.44,0.021-0.883-0.036-1.32c-0.003-1.209-0.001-2.418-0.001-3.626c0.046-0.394,0.029-0.79,0.031-1.186
		c-0.014-0.292,0.051-0.581,0.031-0.874c-0.022-0.334,0.048-0.665,0.031-0.999c-0.002-0.118-0.01-0.237,0.027-0.35
		c0.009-0.205-0.002-0.411,0.01-0.615c0.057-0.563,0.045-1.135,0.113-1.697c0.008-0.292,0.021-0.586,0.063-0.875
		c0.068-1.109,0.229-2.21,0.373-3.313c0.188-1.474,0.395-2.947,0.641-4.413c0.235-1.399,0.484-2.801,0.892-4.163
		c0.449-1.358,0.892-2.719,1.396-4.058c0.443-1.157,0.91-2.315,1.564-3.373C98.624,5.404,98.976,4.968,99.409,4.622z"/>
	<path d="M34.209,5.345c0.428-0.049,0.86,0.005,1.288-0.05c1.146,0.007,2.292-0.086,3.438-0.01c1.921,0.026,3.843,0.1,5.759,0.266
		c1.357,0.137,2.734,0.253,4.031,0.704c0.661,0.228,1.351,0.466,1.871,0.952c0.207,0.182,0.283,0.537,0.066,0.741
		c-0.245,0.192-0.526,0.333-0.774,0.521c-1.033,0.751-1.989,1.606-2.875,2.525c-0.473,0.544-1.022,1.014-1.598,1.443
		c-0.322,0.225-0.679,0.455-1.089,0.426c-0.334-0.217-0.299-0.665-0.174-0.992c0.277-0.758,0.577-1.51,0.962-2.22
		c0.193-0.333,0.478-0.614,0.598-0.987c-0.143-0.379-0.547-0.533-0.886-0.688c-1.092-0.423-2.259-0.604-3.415-0.757
		c-2.906-0.344-5.848-0.303-8.756-0.01c-2.073,0.221-4.146,0.544-6.146,1.145c-3.873,1.287-7.548,3.344-10.401,6.292
		c-2.168,2.218-3.803,4.955-4.715,7.92c-0.492,1.613-0.72,3.302-0.738,4.985c-0.042,0.497-0.031,0.996,0.007,1.491
		c-0.01,0.628,0.044,1.252,0.067,1.878c0.055,1.293,0.356,2.559,0.668,3.811c0.346,1.341,0.799,2.658,1.385,3.914
		c0.459,0.992,1.067,1.906,1.732,2.771c0.362,0.469,0.697,0.959,1.109,1.386c0.345,0.343,0.688,0.687,1.032,1.031
		c0.509,0.479,1.065,0.902,1.629,1.312c1.735,1.229,3.571,2.327,5.525,3.167c2.221,0.942,4.545,1.616,6.879,2.214
		c3.865,0.985,7.738,1.938,11.634,2.788c0.919,0.21,1.851,0.359,2.78,0.519c0.216,0.054,0.48,0.06,0.624,0.256
		c-0.169,0.116-0.369,0.17-0.568,0.204h-1.85c-2.248-0.192-4.494-0.425-6.729-0.734c-1.708-0.231-3.418-0.454-5.126-0.69
		c-2.833-0.398-5.604-1.133-8.355-1.904c-0.861-0.234-1.712-0.503-2.562-0.771c-1.167-0.404-2.341-0.804-3.434-1.384
		c-2.24-1.146-4.421-2.446-6.345-4.079c-1.565-1.338-2.944-2.907-3.985-4.688c-1.351-2.312-2.293-4.894-2.521-7.572
		c-0.02-0.195-0.024-0.391-0.057-0.584v-1.995c0.046-0.308,0.046-0.62,0.083-0.928c0.14-1.387,0.433-2.753,0.738-4.112
		c0.175-0.792,0.32-1.596,0.628-2.35c0.403-0.995,0.715-2.029,1.205-2.986c1.375-2.684,3.195-5.175,5.516-7.118
		c1.843-1.563,3.958-2.767,6.136-3.794c0.842-0.401,1.706-0.758,2.592-1.051c0.914-0.285,1.836-0.541,2.757-0.797
		c1.084-0.259,2.186-0.44,3.273-0.686c1.507-0.349,3.052-0.483,4.591-0.602C32.544,5.401,33.376,5.367,34.209,5.345z"/>
	<path d="M106.073,21.486c0.28-0.016,0.563-0.005,0.844-0.004c0.387,0.044,0.699,0.313,0.892,0.639
		c0.288,0.469,0.475,0.994,0.783,1.451c0.375,0.566,0.713,1.205,0.697,1.903c0.039,0.688-0.245,1.378-0.737,1.857
		c-0.496,0.538-1.187,0.863-1.895,1.013c-1.584,0.284-3.271-0.988-3.396-2.602c-0.033-0.499,0.161-0.974,0.325-1.435
		c0.293-0.754,0.685-1.48,1.226-2.086c0.183-0.207,0.4-0.393,0.669-0.477C105.685,21.677,105.873,21.567,106.073,21.486z"/>
	<g>
		<path d="M35.047,31.828c1.635-1.582,3.811-2.623,6.087-2.801c1.138-0.076,2.303,0.021,3.379,0.421
			c0.903,0.336,1.754,0.842,2.424,1.541c0.914,0.869,1.535,2.003,1.952,3.183c0.356,1.023,0.52,2.098,0.764,3.15
			c0.179,0.91,0.388,1.818,0.456,2.746c0.079,0.446,0.048,0.9,0.055,1.35c0.008,0.283-0.018,0.566-0.054,0.848
			c-0.213,1.928-1.071,3.804-2.488,5.145c-0.432,0.453-0.936,0.834-1.457,1.182c-0.961,0.608-2,1.115-3.104,1.405
			c-0.681,0.188-1.377,0.323-2.08,0.397c-0.125,0.027-0.254,0.021-0.38,0.031c-0.196,0.043-0.398,0.015-0.597,0.021
			c-0.395-0.008-0.79,0.023-1.182-0.029c-1.289-0.123-2.528-0.588-3.63-1.256c-0.826-0.523-1.606-1.137-2.241-1.885
			c-1.06-1.179-1.717-2.695-1.922-4.262c-0.038-0.187-0.056-0.375-0.062-0.563c-0.058-0.253,0.005-0.516-0.044-0.769
			c0.054-0.308-0.018-0.623,0.044-0.929c0.087-1.322,0.427-2.616,0.895-3.852C32.59,35.033,33.648,33.275,35.047,31.828z
			 M43.952,36.49c-0.898,0.119-1.427,1.258-1.009,2.041c0.171,0.258,0.524,0.344,0.814,0.27c0.532-0.113,1.014-0.528,1.125-1.074
			c0.085-0.309-0.021-0.631-0.169-0.903C44.604,36.523,44.225,36.477,43.952,36.49z M37.724,38.105
			c0.005,0.299-0.06,0.667,0.214,0.875c0.375,0.227,0.84,0.105,1.234-0.009c0.323-0.089,0.63-0.324,0.685-0.673
			c-0.039-0.367-0.237-0.689-0.301-1.051c-0.065-0.209-0.271-0.365-0.485-0.395C38.37,36.758,37.706,37.412,37.724,38.105z
			 M38.838,41.363c-0.306,0.008-0.597,0.174-0.763,0.432c-0.324,0.473-0.385,1.067-0.415,1.625
			c-0.037,0.338,0.228,0.639,0.542,0.725c0.735,0.236,1.581-0.351,1.676-1.102c-0.021-0.506-0.167-1.012-0.431-1.447
			C39.295,41.43,39.055,41.375,38.838,41.363z M42.706,42.42c-0.435,0.4-0.59,1.027-0.538,1.601c0.113,0.304,0.495,0.36,0.779,0.366
			c0.285-0.018,0.643,0.073,0.851-0.18c0.301-0.352,0.418-0.814,0.517-1.256c0.005-0.301,0.051-0.629-0.14-0.889
			c-0.032-0.02-0.097-0.059-0.129-0.078C43.563,41.872,43.055,42.086,42.706,42.42z"/>
	</g>
	<path d="M105.478,30.827c0.478-0.068,0.998,0.017,1.376,0.336c0.585,0.482,0.823,1.248,0.956,1.968
		c0.043,0.23,0.061,0.464,0.094,0.696c0.121,0.96,0.117,1.96-0.218,2.88c-0.099,0.354-0.294,0.672-0.359,1.034
		c-0.066,0.599,0.15,1.179,0.399,1.712c0.461,0.885,1.094,1.681,1.854,2.327c0.246,0.222,0.51,0.435,0.818,0.563
		c0.568,0.238,1.188,0.382,1.699,0.739c0.283,0.219,0.563,0.496,0.621,0.865c0.139,0.707,0.091,1.459-0.17,2.135
		c-0.185,0.493-0.53,0.926-0.975,1.208c-0.349,0.228-0.753,0.349-1.156,0.431c-0.589,0.104-1.194,0.126-1.781,0.001
		c-1.762-0.368-3.361-1.489-4.262-3.054c-0.656-1.113-0.962-2.404-1.024-3.687c-0.021-0.364-0.06-0.728-0.067-1.091
		c-0.053-0.166,0-0.345-0.053-0.51c-0.016-0.334-0.021-0.671-0.063-1c-0.008-0.77-0.084-1.546-0.01-2.313
		c0.001-0.293,0.017-0.586,0.059-0.875c0.132-1.318,0.505-2.646,1.277-3.738C104.71,31.114,105.09,30.91,105.478,30.827z"/>
	<g>
		<path d="M143.659,31.004c0.444-0.058,0.899-0.009,1.349-0.025c0.343-0.02,0.683,0.036,1.025,0.037
			c0.145,0.042,0.3,0.013,0.449,0.048c1.027,0.117,2.023,0.438,2.973,0.843c0.65,0.285,1.209,0.733,1.73,1.207
			c0.389,0.382,0.782,0.763,1.102,1.207c0.274,0.34,0.438,0.756,0.741,1.074c0.276,0.326,0.722,0.453,1.138,0.393
			c0.894-0.143,1.73-0.49,2.586-0.77c0.487-0.146,0.992-0.279,1.506-0.259c0.381-0.005,0.768,0.104,1.073,0.336
			c0.376,0.281,0.629,0.704,0.778,1.145c0.098,0.265,0.038,0.56-0.102,0.798c-0.227,0.396-0.607,0.668-0.971,0.93
			c-0.629,0.467-1.395,0.693-2.148,0.861c-0.837,0.191-1.692,0.275-2.543,0.363c-0.293,0.02-0.588,0.021-0.875,0.064
			c-0.664,0.016-1.325,0.076-1.99,0.072c-0.373,0.076-0.763-0.025-1.135,0.053c-0.656-0.012-1.308,0.053-1.963,0.035
			c-0.688-0.012-1.377,0.03-2.063-0.031c-0.479,0.001-0.959,0-1.438,0.002c-1.007-0.077-2.021,0.011-3.027-0.068
			c-0.144-0.042-0.295-0.023-0.44-0.034c-0.29-0.06-0.595-0.016-0.878,0.055c-0.227,0.091-0.205,0.386-0.246,0.583
			c0.018,0.738,0.376,1.411,0.758,2.024c0.346,0.515,0.729,1.005,1.163,1.448c0.2,0.229,0.416,0.516,0.752,0.513
			c0.54-0.038,1.04-0.268,1.548-0.435c0.473-0.152,0.968-0.354,1.472-0.284c0.609,0.056,1.229,0.269,1.675,0.705
			c0.598,0.577,0.835,1.431,0.865,2.241c0.01,0.463-0.146,0.955-0.516,1.251c-0.595,0.392-1.342,0.392-2.027,0.369
			c-0.5-0.05-0.987-0.169-1.47-0.302c-1.151-0.306-2.315-0.613-3.379-1.162c-0.755-0.367-1.436-0.879-2.023-1.478
			c-1.591-1.649-2.532-3.912-2.54-6.207c0.002-0.139-0.014-0.28,0.028-0.414c0.003-0.122,0.003-0.245,0.011-0.366
			c0.124-1.146,0.41-2.297,1.023-3.285c0.347-0.571,0.775-1.092,1.26-1.553C140.117,31.697,141.914,31.101,143.659,31.004z
			 M143.979,33.328c-0.425,0.076-0.847,0.187-1.229,0.387c-0.828,0.412-1.575,1.058-1.955,1.915
			c-0.104,0.272-0.223,0.558-0.19,0.854c0.099,0.222,0.384,0.197,0.587,0.238c0.709,0.015,1.422,0.002,2.132,0.006
			c0.58-0.058,1.164-0.021,1.747-0.03c0.726-0.063,1.457-0.019,2.188-0.032c0.461-0.014,0.947,0.05,1.388-0.123
			c-0.063-0.395-0.335-0.705-0.575-1.008c-0.215-0.279-0.482-0.51-0.725-0.766c-0.311-0.377-0.676-0.718-1.098-0.966
			c-0.439-0.224-0.898-0.47-1.4-0.482l-0.054-0.03C144.52,33.276,144.25,33.311,143.979,33.328z"/>
	</g>
	<g>
		<path d="M78.413,32.387c1.122-0.616,2.375-1.198,3.688-1.043c1.173,0.066,2.359,0.571,3.098,1.509
			c0.648,0.79,0.994,1.782,1.174,2.778c0.055,0.352,0.108,0.705,0.108,1.063c0.05,0.165,0.005,0.342,0.048,0.51
			c0.156,1.35,0.406,2.727,1.062,3.934c0.278,0.422,0.527,0.863,0.728,1.328c0.314,0.649,0.605,1.309,0.938,1.949
			c0.286,0.59,0.595,1.172,0.987,1.697c0.167,0.279,0.393,0.624,0.237,0.957c-0.105,0.252-0.396,0.312-0.633,0.375
			c-0.768,0.066-1.549,0.063-2.309-0.08c-0.699-0.145-1.42-0.322-2.005-0.754c-0.503-0.359-0.821-0.908-1.094-1.45
			c-0.331-0.7-0.624-1.418-0.92-2.132c-0.2-0.507-0.396-1.026-0.428-1.574c-0.032-0.133-0.024-0.271-0.022-0.406
			c-0.025-0.029-0.074-0.088-0.1-0.117c-0.16,0.068-0.288,0.188-0.35,0.352c-0.43,1.108-0.985,2.169-1.666,3.145
			c-0.699,0.975-1.54,1.898-2.635,2.43c-0.535,0.284-1.123,0.441-1.713,0.552c-0.559,0.087-1.123,0.151-1.688,0.171
			c-1.805,0.224-3.738-0.139-5.214-1.243c-0.238-0.196-0.511-0.374-0.649-0.661c-0.098-0.163-0.123-0.354-0.168-0.535
			c-0.057-0.722,0.164-1.428,0.423-2.092c0.456-1.131,1.1-2.172,1.735-3.21C72.931,36.872,75.344,34.159,78.413,32.387z
			 M76.292,38.943c-0.848,0.744-1.589,1.623-2.113,2.627c-0.293,0.561-0.519,1.164-0.571,1.799
			c-0.028,0.508,0.147,1.063,0.572,1.372c0.289,0.228,0.666,0.28,1.02,0.329c0.683,0.035,1.341-0.29,1.814-0.768
			c0.492-0.467,0.87-1.037,1.194-1.627c0.66-1.182,1.107-2.464,1.604-3.719c0.25-0.693,0.52-1.388,0.651-2.116
			c0.026-0.157,0.034-0.335-0.083-0.459C78.92,37.063,77.512,37.886,76.292,38.943z"/>
	</g>
	<path d="M124.72,31.564c0.467-0.055,0.967-0.042,1.395,0.176c1.252,0.587,2.242,1.603,3.053,2.703
		c0.446,0.629,0.872,1.274,1.249,1.947c0.55,1.263,0.958,2.58,1.429,3.873c0.42,1.094,0.734,2.225,1.073,3.346
		c0.253,0.844,0.505,1.699,0.565,2.584c0.05,0.414,0.025,0.836-0.016,1.25c-0.077,0.438-0.2,0.875-0.44,1.254
		c-0.279,0.441-0.69,0.836-1.21,0.96c-0.68,0.146-1.371-0.126-1.936-0.487c-1.014-0.608-1.752-1.586-2.225-2.656
		c-0.522-1.131-0.872-2.33-1.295-3.502c-0.464-1.213-0.893-2.441-1.266-3.686c-0.139-0.461-0.436-0.908-0.895-1.094
		c-0.467-0.19-0.982-0.041-1.418,0.16c-1.05,0.568-1.628,1.674-2.167,2.688c-0.308,0.635-0.619,1.27-0.913,1.911
		c-0.3,0.573-0.592,1.162-1.037,1.642c-0.317,0.345-0.677,0.717-1.154,0.813c-0.283,0.003-0.401-0.304-0.525-0.508
		c-0.295-0.548-0.234-1.182-0.225-1.778c0.039-0.424,0.09-0.847,0.156-1.268c0.096-0.612,0.252-1.213,0.391-1.815
		c0.009-0.067,0.02-0.134,0.033-0.198c0.094-0.577,0.147-1.158,0.203-1.739c0.096-0.8,0.197-1.626,0.586-2.345
		c0.389-0.717,1.117-1.195,1.9-1.375c0.365-0.019,0.745,0.041,1.097-0.086c0.472-0.229,0.683-0.738,0.945-1.159
		c0.325-0.566,0.89-0.935,1.447-1.245C123.887,31.721,124.296,31.582,124.72,31.564z"/>
	<path d="M60.058,32.655c0.668-0.393,1.47-0.347,2.215-0.322c0.192,0.038,0.392-0.004,0.582,0.048
		c0.436-0.005,0.868,0.047,1.302,0.074c0.941,0.107,1.886,0.259,2.781,0.58c0.801,0.28,1.613,0.695,2.083,1.433
		c0.521,0.729,0.533,1.822-0.099,2.489c-0.406,0.409-1.025,0.592-1.589,0.481c-0.736-0.118-1.376-0.522-2.063-0.786
		c-0.553-0.221-1.145-0.442-1.75-0.34c-0.663,0.107-1.187,0.585-1.582,1.1c-0.513,0.697-0.986,1.431-1.326,2.229
		c-0.281,0.674-0.354,1.406-0.441,2.123c-0.018,0.331-0.073,0.659-0.076,0.991c-0.046,0.372-0.058,0.749-0.061,1.125
		c-0.063,0.206,0.008,0.427-0.052,0.634c-0.054,0.767-0.134,1.549-0.422,2.267c-0.187,0.479-0.68,0.722-1.137,0.877
		c-0.773,0.226-1.662,0.201-2.358-0.235c-0.289-0.18-0.604-0.377-0.735-0.708c-0.108-0.312-0.13-0.65-0.08-0.976
		c0.057-0.611,0.241-1.199,0.406-1.788c0.201-0.854,0.278-1.733,0.296-2.607c0.038-0.274,0.026-0.552,0.019-0.827
		c-0.061-0.229,0.008-0.469-0.049-0.697c-0.033-0.547-0.112-1.1-0.332-1.604c-0.334-0.812-0.734-1.606-1.279-2.3
		c-0.496-0.65-1.188-1.107-1.83-1.6c-0.186-0.148-0.404-0.291-0.484-0.527c-0.067-0.185,0.033-0.365,0.091-0.537
		c0.448-0.379,1.083-0.491,1.639-0.312c0.958,0.296,1.723,0.976,2.521,1.554c0.441,0.31,0.895,0.649,1.441,0.734
		c0.452,0.042,0.769-0.36,0.965-0.715C59.027,33.836,59.327,33.027,60.058,32.655z"/>
</g>
</svg>
