<?xml version="1.0" encoding="UTF-8" standalone="no"?>
<svg
   xmlns:dc="http://purl.org/dc/elements/1.1/"
   xmlns:cc="http://creativecommons.org/ns#"
   xmlns:rdf="http://www.w3.org/1999/02/22-rdf-syntax-ns#"
   xmlns:svg="http://www.w3.org/2000/svg"
   xmlns="http://www.w3.org/2000/svg"
   xmlns:sodipodi="http://sodipodi.sourceforge.net/DTD/sodipodi-0.dtd"
   xmlns:inkscape="http://www.inkscape.org/namespaces/inkscape"
   width="26.521568mm"
   height="33.282001mm"
   viewBox="0 0 26.521568 33.282001"
   version="1.1"
   id="svg8"
   inkscape:version="1.0.1 (3bc2e813f5, 2020-09-07)"
   sodipodi:docname="home.svg">
  <defs
     id="defs2" />
  <sodipodi:namedview
     id="base"
     pagecolor="#ffffff"
     bordercolor="#666666"
     borderopacity="1.0"
     inkscape:pageopacity="0.0"
     inkscape:pageshadow="2"
     inkscape:zoom="1.0945376"
     inkscape:cx="-124.42118"
     inkscape:cy="122.83513"
     inkscape:document-units="mm"
     inkscape:current-layer="layer1"
     inkscape:document-rotation="0"
     showgrid="false"
     inkscape:snap-global="false"
     inkscape:window-width="1366"
     inkscape:window-height="745"
     inkscape:window-x="-8"
     inkscape:window-y="-8"
     inkscape:window-maximized="1"
     showguides="true" />
  <metadata
     id="metadata5">
    <rdf:RDF>
      <cc:Work
         rdf:about="">
        <dc:format>image/svg+xml</dc:format>
        <dc:type
           rdf:resource="http://purl.org/dc/dcmitype/StillImage" />
        <dc:title />
      </cc:Work>
    </rdf:RDF>
  </metadata>
  <g
     inkscape:label="Capa 1"
     inkscape:groupmode="layer"
     id="layer1"
     transform="translate(-109.3874,-224.16478)">
    <path
       d="m 113.57617,238.17128 c 0.23027,-0.18238 0.50974,-0.30383 0.80226,-0.33953 0.25595,-0.0283 0.53976,-0.007 0.75089,0.15715 0.15713,0.11143 0.22896,0.31558 0.21547,0.50363 -0.0305,0.19632 -0.0836,0.38785 -0.13669,0.57895 -0.18935,0.63205 -0.40787,1.25495 -0.63292,1.87482 -0.18369,0.50669 -0.38436,1.00684 -0.55108,1.51918 -0.37653,1.14309 -0.69953,2.3036 -1.01382,3.4654 -0.18673,0.68777 -0.31602,1.3899 -0.4083,2.09596 -0.008,0.0818 -0.0135,0.16366 -0.027,0.24507 -0.0239,0.19936 -0.0305,0.40003 -0.0562,0.59853 -0.003,0.23985 -0.0339,0.47883 -0.0287,0.71911 -0.0266,0.28077 -0.009,0.56284 -0.0135,0.84404 0,0.65904 -0.01,1.31808 0.0383,1.97408 0.002,0.0618 0.002,0.12362 0.004,0.18543 0.0187,0.11709 0.0182,0.23637 0.0278,0.35433 0.0213,0.14539 0.0248,0.29339 0.0474,0.43921 0.0444,0.41005 0.10709,0.81923 0.19849,1.22232 0.0513,0.2146 0.10753,0.43138 0.21374,0.62682 0.11753,0.23942 0.24681,0.48536 0.46316,0.65078 0.19413,0.16715 0.41701,0.35215 0.44574,0.62508 0.0166,0.17673 -0.0217,0.36217 -0.13059,0.50538 -0.0714,0.0858 -0.18544,0.11144 -0.29165,0.1184 -0.38611,0.0339 -0.77308,0.0352 -1.1605,0.0278 -0.27642,-0.0409 -0.52541,-0.20763 -0.68473,-0.43442 -0.14146,-0.18239 -0.22591,-0.40004 -0.3047,-0.61464 -0.16672,-0.51322 -0.23985,-1.05038 -0.29948,-1.58492 -0.01,-0.0562 -0.0117,-0.11274 -0.0205,-0.16758 -0.003,-0.0357 -0.004,-0.0701 -0.006,-0.10448 -0.0135,-0.0557 -0.01,-0.11318 -0.0213,-0.16802 -0.0288,-0.34476 -0.054,-0.69038 -0.0827,-1.03339 -0.008,-0.17238 -0.01,-0.34694 -0.0274,-0.51758 -0.007,-0.12971 0.007,-0.26074 -0.0131,-0.38959 -0.01,-0.19152 0.009,-0.38436 -0.0157,-0.57458 -0.002,-0.52628 -4.4e-4,-1.05255 -4.4e-4,-1.57839 0.02,-0.17151 0.0127,-0.34389 0.0135,-0.51627 -0.006,-0.1271 0.0222,-0.2529 0.0135,-0.38045 -0.01,-0.14538 0.0209,-0.28946 0.0135,-0.43486 -8.3e-4,-0.0513 -0.004,-0.10316 0.0118,-0.15235 0.004,-0.0892 -8.4e-4,-0.17891 0.004,-0.26771 0.0248,-0.24507 0.0196,-0.49406 0.0492,-0.73869 0.003,-0.12711 0.009,-0.25509 0.0274,-0.38089 0.0296,-0.48274 0.0997,-0.962 0.16237,-1.44214 0.0818,-0.64162 0.17194,-1.28281 0.27902,-1.92096 0.10229,-0.60898 0.21068,-1.21927 0.38829,-1.81214 0.19544,-0.59114 0.38828,-1.18357 0.60767,-1.76643 0.19284,-0.50364 0.39612,-1.00772 0.68081,-1.46826 0.1258,-0.20285 0.27902,-0.39264 0.4675,-0.54325 z"
       id="path879"
       style="stroke-width:0.435297" />
    <path
       d="m 119.98934,224.16759 c 0.107,-0.005 0.21515,-0.002 0.32252,-10e-4 0.14789,0.0153 0.26711,0.10871 0.34087,0.22195 0.11005,0.1629 0.18152,0.34526 0.29921,0.504 0.1433,0.1966 0.27247,0.41855 0.26635,0.66101 0.0149,0.23897 -0.0936,0.47864 -0.28163,0.64502 -0.18954,0.18687 -0.4536,0.29976 -0.72415,0.35186 -0.6053,0.0986 -1.24997,-0.34318 -1.29774,-0.9038 -0.0126,-0.17332 0.0615,-0.33832 0.12419,-0.49844 0.11197,-0.2619 0.26177,-0.51408 0.46851,-0.72457 0.0699,-0.0719 0.15285,-0.13651 0.25564,-0.16568 0.078,-0.0236 0.1498,-0.0619 0.22623,-0.09 z"
       id="path883"
       style="stroke-width:0.364328" />
    <g
       id="g887"
       transform="matrix(0.39041884,0,0,0.39041884,103.48211,229.89151)">
      <path
         d="m 35.047,31.828 c 1.635,-1.582 3.811,-2.623 6.087,-2.801 1.138,-0.076 2.303,0.021 3.379,0.421 0.903,0.336 1.754,0.842 2.424,1.541 0.914,0.869 1.535,2.003 1.952,3.183 0.356,1.023 0.52,2.098 0.764,3.15 0.179,0.91 0.388,1.818 0.456,2.746 0.079,0.446 0.048,0.9 0.055,1.35 0.008,0.283 -0.018,0.566 -0.054,0.848 -0.213,1.928 -1.071,3.804 -2.488,5.145 -0.432,0.453 -0.936,0.834 -1.457,1.182 -0.961,0.608 -2,1.115 -3.104,1.405 -0.681,0.188 -1.377,0.323 -2.08,0.397 -0.125,0.027 -0.254,0.021 -0.38,0.031 -0.196,0.043 -0.398,0.015 -0.597,0.021 -0.395,-0.008 -0.79,0.023 -1.182,-0.029 -1.289,-0.123 -2.528,-0.588 -3.63,-1.256 -0.826,-0.523 -1.606,-1.137 -2.241,-1.885 -1.06,-1.179 -1.717,-2.695 -1.922,-4.262 -0.038,-0.187 -0.056,-0.375 -0.062,-0.563 -0.058,-0.253 0.005,-0.516 -0.044,-0.769 0.054,-0.308 -0.018,-0.623 0.044,-0.929 0.087,-1.322 0.427,-2.616 0.895,-3.852 0.728,-1.869 1.786,-3.627 3.185,-5.074 z m 8.905,4.662 c -0.898,0.119 -1.427,1.258 -1.009,2.041 0.171,0.258 0.524,0.344 0.814,0.27 0.532,-0.113 1.014,-0.528 1.125,-1.074 0.085,-0.309 -0.021,-0.631 -0.169,-0.903 -0.109,-0.301 -0.488,-0.347 -0.761,-0.334 z m -6.228,1.615 c 0.005,0.299 -0.06,0.667 0.214,0.875 0.375,0.227 0.84,0.105 1.234,-0.009 0.323,-0.089 0.63,-0.324 0.685,-0.673 -0.039,-0.367 -0.237,-0.689 -0.301,-1.051 -0.065,-0.209 -0.271,-0.365 -0.485,-0.395 -0.701,-0.094 -1.365,0.56 -1.347,1.253 z m 1.114,3.258 c -0.306,0.008 -0.597,0.174 -0.763,0.432 -0.324,0.473 -0.385,1.067 -0.415,1.625 -0.037,0.338 0.228,0.639 0.542,0.725 0.735,0.236 1.581,-0.351 1.676,-1.102 -0.021,-0.506 -0.167,-1.012 -0.431,-1.447 -0.152,-0.166 -0.392,-0.221 -0.609,-0.233 z m 3.868,1.057 c -0.435,0.4 -0.59,1.027 -0.538,1.601 0.113,0.304 0.495,0.36 0.779,0.366 0.285,-0.018 0.643,0.073 0.851,-0.18 0.301,-0.352 0.418,-0.814 0.517,-1.256 0.005,-0.301 0.051,-0.629 -0.14,-0.889 -0.032,-0.02 -0.097,-0.059 -0.129,-0.078 -0.483,-0.112 -0.991,0.102 -1.34,0.436 z"
         id="path885" />
    </g>
    <path
       d="m 121.9968,233.05881 c 0.73897,-0.0372 1.53019,-0.0277 2.20744,0.12004 1.98115,0.40041 3.54772,1.09335 4.83102,1.84361 0.70576,0.42902 1.37988,0.86895 1.97645,1.328 0.87028,0.8614 1.51591,1.75967 2.26124,2.64159 0.66458,0.74617 1.16146,1.51757 1.69789,2.28217 0.40035,0.57566 0.79911,1.15883 0.89405,1.76247 0.0792,0.28221 0.0396,0.57016 -0.0242,0.85256 -0.12174,0.29875 -0.31651,0.59678 -0.69629,0.85531 -0.44147,0.30087 -1.09184,0.5702 -1.9147,0.65477 -1.07601,0.0997 -2.16944,-0.0859 -3.06351,-0.33217 -1.60452,-0.41469 -2.77235,-1.08174 -3.52083,-1.81155 -0.826,-0.7714 -1.37982,-1.58919 -2.0492,-2.38855 -0.73421,-0.82736 -1.41305,-1.66493 -2.00329,-2.51411 -0.21996,-0.31442 -0.68992,-0.61929 -1.41626,-0.74617 -0.73896,-0.12943 -1.5539,-0.0277 -2.24381,0.10924 -1.66152,0.3874 -2.57614,1.14175 -3.42908,1.83338 -0.48735,0.43309 -0.97949,0.86619 -1.44471,1.3034 -0.47473,0.39081 -0.93676,0.79256 -1.64094,1.11994 -0.50163,0.23539 -1.07128,0.48906 -1.82609,0.55451 -0.44781,0.002 -0.63453,-0.20712 -0.83076,-0.34649 -0.46681,-0.37376 -0.37026,-0.80619 -0.35602,-1.21268 0.0617,-0.28925 0.14234,-0.5777 0.24691,-0.86487 0.1517,-0.41742 0.39876,-0.82732 0.61873,-1.23791 0.0158,-0.0455 0.0315,-0.0914 0.0521,-0.13506 0.14868,-0.39353 0.23267,-0.78984 0.32124,-1.18611 0.15185,-0.54564 0.31172,-1.10902 0.92728,-1.59943 0.61554,-0.48903 1.76752,-0.81503 3.00654,-0.93781 0.57758,-0.011 1.17888,0.0277 1.73589,-0.0587 0.74689,-0.15603 1.08077,-0.50336 1.49537,-0.7905 0.51426,-0.38607 1.40833,-0.63773 2.28971,-0.84918 0.58073,-0.14258 1.22795,-0.2372 1.89887,-0.24977 z"
       id="path899"
       style="stroke-width:1.03889" />
    <path
       d="m 124.1012,249.80759 c 0.31505,-0.19317 0.6933,-0.17056 1.04466,-0.15827 0.0906,0.0186 0.18488,-0.002 0.2745,0.0236 0.20563,-0.003 0.40937,0.0231 0.61406,0.0363 0.44381,0.0526 0.88949,0.12732 1.3116,0.28509 2.13477,0.5317 0.20182,6.80275 0.0367,6.84343 -0.34712,-0.058 -0.90537,-0.0429 -0.82341,-5.06553 -0.26082,-0.10864 -0.54002,-0.21727 -0.82536,-0.16713 -0.31269,0.0526 -0.55983,0.28755 -0.74613,0.54069 -0.24194,0.3426 -0.46503,0.70339 -0.62538,1.09563 -0.13253,0.3313 -0.16696,0.69111 -0.20799,1.04354 -0.008,0.16269 -0.0344,0.32392 -0.0358,0.48711 -0.0217,0.18285 -0.0274,0.36816 -0.0288,0.55298 -0.0297,0.10126 0.004,0.20988 -0.0246,0.31164 -0.0255,0.377 -0.0632,0.76138 -0.19903,1.1143 -0.0882,0.23546 -0.3207,0.3549 -0.53624,0.43108 -0.36457,0.1111 -0.78385,0.0988 -1.11211,-0.11551 -0.1363,-0.0885 -0.28487,-0.1853 -0.34665,-0.348 -0.0509,-0.15337 -0.0613,-0.3195 -0.0377,-0.47975 0.0269,-0.30032 0.11366,-0.58934 0.19149,-0.87886 0.0948,-0.41978 0.1311,-0.85183 0.1396,-1.28144 0.0179,-0.13468 0.0123,-0.27132 0.009,-0.4065 -0.0288,-0.11256 0.004,-0.23053 -0.0231,-0.3426 -0.0155,-0.26887 -0.0528,-0.54069 -0.15659,-0.78842 -0.15752,-0.39913 -0.34618,-0.78941 -0.60322,-1.13053 -0.23393,-0.3195 0.29336,0.11944 -0.008,-0.12411 -0.0887,-0.0716 -0.19053,-0.14305 -0.22827,-0.25905 -0.0316,-0.0909 0.0156,-0.1794 0.0429,-0.26395 0.2113,-0.18629 0.51078,-0.24134 0.77301,-0.15336 0.45182,0.1455 -0.042,-0.18261 0.33433,0.1015 0.20799,0.15237 0.42211,0.319 0.67962,0.36079 0.21318,0.0206 0.36269,-0.17696 0.45513,-0.35145 0.17592,-0.33278 0.31741,-0.73043 0.66217,-0.91328 z"
       id="path901"
       style="stroke-width:0.481482"
       sodipodi:nodetypes="cccccccccccccccccccccccccscccccccc" />
    <path
       d="m 131.14731,257.09673 c -0.23027,0.18238 -0.50974,0.30383 -0.80226,0.33953 -0.25595,0.0283 -0.53976,0.007 -0.75089,-0.15715 -0.15713,-0.11143 -0.22896,-0.31558 -0.21547,-0.50363 0.0305,-0.19632 0.0836,-0.38785 0.13669,-0.57895 0.18935,-0.63205 0.40787,-1.25495 0.63292,-1.87482 0.18369,-0.50669 0.38436,-1.00684 0.55108,-1.51918 0.37653,-1.14309 0.69953,-2.3036 1.01382,-3.4654 0.18673,-0.68777 0.31602,-1.3899 0.4083,-2.09596 0.008,-0.0818 0.0135,-0.16366 0.027,-0.24507 0.0239,-0.19936 0.0305,-0.40003 0.0562,-0.59853 0.003,-0.23985 0.0339,-0.47883 0.0287,-0.71911 0.0266,-0.28077 0.009,-0.56284 0.0135,-0.84404 0,-0.65904 0.01,-1.31808 -0.0383,-1.97408 -0.002,-0.0618 -0.002,-0.12362 -0.004,-0.18543 -0.0187,-0.11709 -0.0182,-0.23637 -0.0278,-0.35433 -0.0213,-0.14539 -0.0248,-0.29339 -0.0474,-0.43921 -0.0444,-0.41005 -0.10709,-0.81923 -0.19849,-1.22232 -0.0513,-0.2146 -0.10753,-0.43138 -0.21374,-0.62682 -0.11753,-0.23942 -0.24681,-0.48536 -0.46316,-0.65078 -0.19413,-0.16715 -0.41701,-0.35215 -0.44574,-0.62508 -0.0166,-0.17673 0.0217,-0.36217 0.13059,-0.50538 0.0714,-0.0858 0.18544,-0.11144 0.29165,-0.1184 0.38611,-0.0339 0.77308,-0.0352 1.1605,-0.0278 0.27642,0.0409 0.52541,0.20763 0.68473,0.43442 0.14146,0.18239 0.22591,0.40004 0.3047,0.61464 0.16672,0.51322 0.23985,1.05038 0.29948,1.58492 0.01,0.0562 0.0117,0.11274 0.0205,0.16758 0.003,0.0357 0.004,0.0701 0.006,0.10448 0.0135,0.0557 0.01,0.11318 0.0213,0.16802 0.0288,0.34476 0.054,0.69038 0.0827,1.03339 0.008,0.17238 0.01,0.34694 0.0274,0.51758 0.007,0.12971 -0.007,0.26074 0.0131,0.38959 0.01,0.19152 -0.009,0.38436 0.0157,0.57458 0.002,0.52628 4.4e-4,1.05255 4.4e-4,1.57839 -0.02,0.17151 -0.0127,0.34389 -0.0135,0.51627 0.006,0.1271 -0.0222,0.2529 -0.0135,0.38045 0.01,0.14538 -0.0209,0.28946 -0.0135,0.43486 8.3e-4,0.0513 0.004,0.10316 -0.0118,0.15235 -0.004,0.0892 8.4e-4,0.17891 -0.004,0.26771 -0.0248,0.24507 -0.0196,0.49406 -0.0492,0.73869 -0.003,0.12711 -0.009,0.25509 -0.0274,0.38089 -0.0296,0.48274 -0.0997,0.962 -0.16237,1.44214 -0.0818,0.64162 -0.17194,1.28281 -0.27902,1.92096 -0.10229,0.60898 -0.21068,1.21927 -0.38829,1.81214 -0.19544,0.59114 -0.38828,1.18357 -0.60767,1.76643 -0.19284,0.50364 -0.39612,1.00772 -0.68081,1.46826 -0.1258,0.20285 -0.27902,0.39264 -0.4675,0.54325 z"
       id="path879-8"
       style="stroke-width:0.435298" />
    <path
       d="m 115.55806,230.53034 c 0.41697,-0.0263 0.87058,0.006 1.20031,0.13012 0.51031,0.18666 0.71794,0.4833 0.83396,0.76213 0.0376,0.0891 0.0533,0.17968 0.082,0.26952 0.10555,0.37177 0.10204,0.75904 -0.19016,1.11531 -0.0863,0.13709 -0.25647,0.26025 -0.31317,0.40042 -0.0576,0.23197 0.13093,0.45659 0.34806,0.66299 0.40214,0.34273 0.95432,0.65098 1.6173,0.90114 0.21459,0.086 0.44488,0.16846 0.71356,0.21803 0.49548,0.0922 1.03632,0.14794 1.48208,0.28619 0.24686,0.0848 0.49113,0.19208 0.54171,0.33497 0.12125,0.2738 0.0793,0.56501 -0.1483,0.8268 -0.16133,0.19091 -0.46235,0.3586 -0.85053,0.46782 -0.30444,0.0883 -0.65686,0.13515 -1.00841,0.1669 -0.5138,0.0402 -1.04155,0.0487 -1.5536,4e-4 -1.53705,-0.14253 -2.93189,-0.57664 -3.71786,-1.18271 -0.57224,-0.43101 -0.83917,-0.93096 -0.89327,-1.4278 -0.0184,-0.14098 -0.0523,-0.28194 -0.0585,-0.4225 -0.0463,-0.0643 0,-0.13361 -0.0463,-0.1975 -0.0134,-0.12935 -0.0184,-0.25985 -0.055,-0.38727 -0.007,-0.29819 -0.0733,-0.5987 -0.008,-0.89572 8.9e-4,-0.11352 0.015,-0.22693 0.0514,-0.33886 0.11507,-0.5104 0.44052,-1.02468 1.11397,-1.44757 0.18928,-0.13166 0.52078,-0.21067 0.85924,-0.24281 z"
       id="path889"
       style="stroke-width:0.581218" />
    <path
       d="m 117.61738,226.27337 c 0.14625,-0.008 0.29407,-0.003 0.44084,-0.002 0.20214,0.023 0.3651,0.16348 0.46591,0.33376 0.15043,0.24497 0.24811,0.51919 0.40898,0.75789 0.19587,0.29564 0.37242,0.6294 0.36406,0.99399 0.0204,0.35935 -0.12797,0.71976 -0.38495,0.96995 -0.25907,0.28101 -0.62,0.45077 -0.9898,0.52911 -0.82736,0.14834 -1.70852,-0.51605 -1.77381,-1.35908 -0.0172,-0.26064 0.0841,-0.50875 0.16975,-0.74954 0.15304,-0.39383 0.35779,-0.77304 0.64037,-1.08956 0.0956,-0.10812 0.20893,-0.20528 0.34943,-0.24915 0.10656,-0.0355 0.20475,-0.093 0.30922,-0.13528 z"
       id="path883-3"
       style="stroke-width:0.522325" />
  </g>
</svg>
