<?xml version="1.0" encoding="UTF-8" standalone="no"?>
<svg
   xmlns:dc="http://purl.org/dc/elements/1.1/"
   xmlns:cc="http://creativecommons.org/ns#"
   xmlns:rdf="http://www.w3.org/1999/02/22-rdf-syntax-ns#"
   xmlns:svg="http://www.w3.org/2000/svg"
   xmlns="http://www.w3.org/2000/svg"
   xmlns:sodipodi="http://sodipodi.sourceforge.net/DTD/sodipodi-0.dtd"
   xmlns:inkscape="http://www.inkscape.org/namespaces/inkscape"
   width="30mm"
   height="30mm"
   viewBox="0 0 30 30"
   version="1.1"
   id="svg8"
   inkscape:version="1.0.1 (3bc2e813f5, 2020-09-07)"
   sodipodi:docname="menu.svg">
  <defs
     id="defs2" />
  <sodipodi:namedview
     id="base"
     pagecolor="#ffffff"
     bordercolor="#666666"
     borderopacity="1.0"
     inkscape:pageopacity="0.0"
     inkscape:pageshadow="2"
     inkscape:zoom="1.0945376"
     inkscape:cx="-47.641246"
     inkscape:cy="97.081659"
     inkscape:document-units="mm"
     inkscape:current-layer="layer1"
     inkscape:document-rotation="0"
     showgrid="false"
     inkscape:snap-global="false"
     inkscape:window-width="1366"
     inkscape:window-height="745"
     inkscape:window-x="-8"
     inkscape:window-y="-8"
     inkscape:window-maximized="1"
     showguides="true" />
  <metadata
     id="metadata5">
    <rdf:RDF>
      <cc:Work
         rdf:about="">
        <dc:format>image/svg+xml</dc:format>
        <dc:type
           rdf:resource="http://purl.org/dc/dcmitype/StillImage" />
        <dc:title></dc:title>
      </cc:Work>
    </rdf:RDF>
  </metadata>
  <g
     inkscape:label="Capa 1"
     inkscape:groupmode="layer"
     id="layer1"
     transform="translate(-107.27225,-221.61768)">
    <path
       d="m 135.56354,223.60967 c -0.35989,4.94164 -9.85159,7.95185 -13.37711,3.05465 -0.21996,-0.31442 -0.68992,-0.61929 -1.41626,-0.74617 -0.73896,-0.12943 -1.5539,-0.0277 -2.24381,0.10924 -1.66152,0.3874 -2.57614,1.14175 -3.42908,1.83338 -0.48735,0.43309 -0.97949,0.86619 -1.44471,1.3034 -0.47473,0.39081 -0.93676,0.79256 -1.64094,1.11994 -0.50163,0.23539 -1.07128,0.48906 -1.82609,0.55451 -0.44781,0.002 -0.63453,-0.20712 -0.83076,-0.34649 -0.46681,-0.37376 -0.37026,-0.80619 -0.35602,-1.21268 0.0617,-0.28925 0.14234,-0.5777 0.24691,-0.86487 0.1517,-0.41742 0.39876,-0.82732 0.61873,-1.23791 0.0158,-0.0455 0.0315,-0.0914 0.0521,-0.13506 0.14868,-0.39353 0.23267,-0.78984 0.32124,-1.18611 0.15185,-0.54564 0.31172,-1.10902 0.92728,-1.59943 0.61554,-0.48903 1.76752,-0.81503 3.00654,-0.93781 0.57758,-0.011 1.17888,0.0277 1.73589,-0.0587 1.27286,-0.62759 2.37561,-1.196 3.78508,-1.63968 5.63419,-0.0861 4.076,2.3863 6.76342,2.48574 4.42708,0.1638 7.73021,-2.9014 9.10759,-0.49595 z"
       id="path899"
       style="fill:#000000;stroke-width:1.03889"
       sodipodi:nodetypes="ccccccccccccccccccsc" />
    <path
       d="m 135.56354,233.9992 c -0.35989,4.94164 -9.85159,7.95185 -13.37711,3.05465 -0.21996,-0.31442 -0.68992,-0.61929 -1.41626,-0.74617 -0.73896,-0.12943 -1.5539,-0.0277 -2.24381,0.10924 -1.66152,0.3874 -2.57614,1.14175 -3.42908,1.83338 -0.48735,0.43309 -0.97949,0.86619 -1.44471,1.3034 -0.47473,0.39081 -0.93676,0.79256 -1.64094,1.11994 -0.50163,0.23539 -1.07128,0.48906 -1.82609,0.55451 -0.44781,0.002 -0.63453,-0.20712 -0.83076,-0.34649 -0.46681,-0.37376 -0.37026,-0.80619 -0.35602,-1.21268 0.0617,-0.28925 0.14234,-0.5777 0.24691,-0.86487 0.1517,-0.41742 0.39876,-0.82732 0.61873,-1.23791 0.0158,-0.0455 0.0315,-0.0914 0.0521,-0.13506 0.14868,-0.39353 0.23267,-0.78984 0.32124,-1.18611 0.15185,-0.54564 0.31172,-1.10902 0.92728,-1.59943 0.61554,-0.48903 1.76752,-0.81503 3.00654,-0.93781 0.57758,-0.011 1.17888,0.0277 1.73589,-0.0587 1.27286,-0.62759 2.37561,-1.196 3.78508,-1.63968 5.63419,-0.0861 4.076,2.3863 6.76342,2.48574 4.42708,0.1638 7.73021,-2.9014 9.10759,-0.49595 z"
       id="path899-2"
       style="fill:#000000;stroke-width:1.03889"
       sodipodi:nodetypes="ccccccccccccccccccsc" />
    <path
       d="m 135.56354,244.38872 c -0.35989,4.94164 -9.85159,7.95185 -13.37711,3.05465 -0.21996,-0.31442 -0.68992,-0.61929 -1.41626,-0.74617 -0.73896,-0.12943 -1.5539,-0.0277 -2.24381,0.10924 -1.66152,0.3874 -2.57614,1.14175 -3.42908,1.83338 -0.48735,0.43309 -0.97949,0.86619 -1.44471,1.3034 -0.47473,0.39081 -0.93676,0.79256 -1.64094,1.11994 -0.50163,0.23539 -1.07128,0.48906 -1.82609,0.55451 -0.44781,0.002 -0.63453,-0.20712 -0.83076,-0.34649 -0.46681,-0.37376 -0.37026,-0.80619 -0.35602,-1.21268 0.0617,-0.28925 0.14234,-0.5777 0.24691,-0.86487 0.1517,-0.41742 0.39876,-0.82732 0.61873,-1.23791 0.0158,-0.0455 0.0315,-0.0914 0.0521,-0.13506 0.14868,-0.39353 0.23267,-0.78984 0.32124,-1.18611 0.15185,-0.54564 0.31172,-1.10902 0.92728,-1.59943 0.61554,-0.48903 1.76752,-0.81503 3.00654,-0.93781 0.57758,-0.011 1.17888,0.0277 1.73589,-0.0587 1.27286,-0.62759 2.37561,-1.196 3.78508,-1.63968 5.63419,-0.0861 4.076,2.3863 6.76342,2.48574 4.42708,0.1638 7.73021,-2.9014 9.10759,-0.49595 z"
       id="path899-6"
       style="fill:#000000;stroke-width:1.03889"
       sodipodi:nodetypes="ccccccccccccccccccsc" />
  </g>
</svg>
